# xmcd
#
# Track frame offsets:
#	150
#	12282
#	31005
#	46475
#	79435
#	98880
#	123035
#	158032
#	172600
#	186700
#	199950
#	217792
#	250185
#	272932
#	291370
#	325890
#
# Disc length: 4619 seconds
#
# Revision: 1
# Processed by: cddbd v1.5.1PL0 Copyright (c) Steve Scherf et al.
# Submitted via: EasyCDDAExtractor 7.0.9.1
#
DISCID=de120910
DTITLE=Soft Cell - Master Series
DYEAR=1998
DGENRE=Pop
TTITLE0=Tainted Love
TTITLE1=Torch
TTITLE2=Down in the subway
TTITLE3=Facility girls
TTITLE4=Loving you hating me
TTITLE5=Say hello, wave goodbye
TTITLE6=Fun City (Marc and the Mambas)
TTITLE7=Mr. Self Destruct
TTITLE8=Where did love go?
TTITLE9=Born to lose
TTITLE10=Kitchen sing drama
TTITLE11=L'Esqualita
TTITLE12=The art of falling apart
TTITLE13=Disease and desire
TTITLE14=Persuasion
TTITLE15=Where the heart is
EXTD=
EXTT0=
EXTT1=
EXTT2=
EXTT3=
EXTT4=
EXTT5=
EXTT6=
EXTT7=
EXTT8=
EXTT9=
EXTT10=
EXTT11=
EXTT12=
EXTT13=
EXTT14=
EXTT15=
PLAYORDER=
